<?xml version="1.0" encoding="utf-8"?>
<!-- Generator: Adobe Illustrator 27.5.0, SVG Export Plug-In . SVG Version: 6.00 Build 0)  -->
<svg version="1.0" id="Layer_1" xmlns="http://www.w3.org/2000/svg" xmlns:xlink="http://www.w3.org/1999/xlink" x="0px" y="0px"
	 viewBox="0 0 423 208" style="enable-background:new 0 0 423 208;" xml:space="preserve">
<style type="text/css">
	.st0{fill:#FFFFFF;}
</style>
<path class="st0" d="M21,90.3v-6.4l41.4-50.2H23.8v-6h47.9v6.4L30.3,84.3h42.9v6H21z"/>
<path class="st0" d="M130.9,54.7c0-3.1-0.4-5.9-1.3-8.6c-0.8-2.7-2-5.1-3.7-7c-1.6-2-3.6-3.6-6.1-4.7c-2.5-1.2-5.3-1.8-8.5-1.8
	s-6.1,0.6-8.5,1.8c-2.4,1.2-4.5,2.8-6.3,4.8c-1.7,2-3,4.4-4.1,7c-1,2.7-1.7,5.5-2,8.5H130.9z M90.3,60.7c0,3.4,0.4,6.6,1.3,9.7
	c0.9,3,2.2,5.6,3.8,7.9c1.8,2.2,4,4,6.6,5.3c2.6,1.3,5.7,1.9,9.1,1.9c4.7,0,8.8-1.2,12.1-3.7c3.4-2.5,5.6-6,6.7-10.6h8.1
	c-0.9,3-2,5.8-3.5,8.3c-1.4,2.5-3.2,4.7-5.4,6.7c-2.2,1.9-4.7,3.3-7.7,4.4c-3,1-6.4,1.6-10.3,1.6c-5,0-9.3-0.8-12.9-2.5
	c-3.6-1.7-6.6-4-8.9-6.9c-2.3-3-4-6.4-5.2-10.4c-1.1-4-1.7-8.3-1.7-12.9s0.6-8.9,1.9-12.9c1.4-4,3.2-7.5,5.7-10.5
	c2.5-3.1,5.5-5.4,9-7.1c3.5-1.8,7.5-2.7,12-2.7c8.6,0,15.3,3,20.2,8.9c4.9,5.9,7.3,14.5,7.2,25.8H90.3z"/>
<path class="st0" d="M159.9,90.3h-7.2V27.7h7.2v8.7c2.9-3.1,5.9-5.6,8.9-7.5c3.1-1.9,6.9-2.9,11.2-2.9c3.8,0,7.4,0.7,10.7,2.1
	c3.3,1.3,6.1,3.6,8.3,6.9c1.5,2.3,2.4,4.6,2.6,7c0.3,2.3,0.5,4.8,0.5,7.4v41h-7.2V49.5c0-5.6-1.2-9.9-3.7-12.7
	c-2.5-2.8-6.6-4.2-12.4-4.2c-2.2,0-4.3,0.4-6.1,1.1c-1.8,0.6-3.5,1.5-5.1,2.7c-1.4,1.1-2.7,2.4-3.7,3.9c-1,1.5-1.8,3-2.4,4.6
	c-0.7,2-1.2,4-1.3,5.8c-0.2,1.9-0.2,3.9-0.2,6V90.3z"/>
<path class="st0" d="M226.7,90.3h-7.2V27.7h7.2v8.7c2.9-3.1,5.9-5.6,8.9-7.5c3.1-1.9,6.9-2.9,11.2-2.9c3.8,0,7.4,0.7,10.7,2.1
	c3.3,1.3,6.1,3.6,8.3,6.9c1.5,2.3,2.4,4.6,2.6,7c0.3,2.3,0.5,4.8,0.5,7.4v41h-7.2V49.5c0-5.6-1.2-9.9-3.7-12.7
	c-2.5-2.8-6.6-4.2-12.4-4.2c-2.2,0-4.3,0.4-6.1,1.1c-1.8,0.6-3.5,1.5-5.1,2.7c-1.4,1.1-2.7,2.4-3.7,3.9c-1,1.5-1.8,3-2.4,4.6
	c-0.7,2-1.2,4-1.3,5.8c-0.2,1.9-0.2,3.9-0.2,6V90.3z"/>
<path class="st0" d="M285.8,107.4c1,0.2,1.9,0.3,2.9,0.5c1,0.2,2.1,0.2,3.1,0.2c2,0,3.6-0.6,4.9-1.9c1.3-1.3,2.3-2.9,3.1-4.7
	c0.9-1.8,1.6-3.7,2.2-5.7c0.6-1.9,1.2-3.6,1.9-5l-24.2-63.1h8.1l20,53.8l20-53.8h7.8l-23.2,61.8c-1.4,4-2.8,7.5-4.2,10.6
	c-1.3,3.1-2.7,5.8-4.2,8c-1.4,2.3-3.1,4-4.9,5.1c-1.8,1.2-3.9,1.8-6.4,1.8c-1.3,0-2.5-0.1-3.7-0.2c-1.1-0.2-2.2-0.4-3.1-0.6V107.4z"
	/>
<path class="st0" d="M387.2,57.4c-3,1.3-6.1,2.1-9.3,2.5c-3.1,0.4-6.3,0.7-9.4,1c-5.5,0.4-9.9,1.7-13,3.7c-3,2.1-4.6,5.3-4.6,9.6
	c0,1.9,0.4,3.6,1.1,5.1c0.8,1.4,1.8,2.5,3,3.5c1.3,0.9,2.7,1.6,4.3,2.1c1.7,0.4,3.4,0.6,5.1,0.6c2.9,0,5.7-0.4,8.4-1.1
	c2.7-0.7,5.1-1.8,7.2-3.3c2.2-1.5,3.9-3.4,5.2-5.7c1.3-2.3,1.9-5.1,1.9-8.2V57.4z M375.1,53.8c1.4-0.2,3-0.4,4.8-0.7
	c1.9-0.3,3.5-0.8,4.7-1.3c1.2-0.6,1.9-1.5,2.2-2.8c0.3-1.4,0.5-2.6,0.5-3.7c0-3.7-1.2-6.7-3.6-9.1c-2.3-2.4-6.3-3.6-11.9-3.6
	c-2.5,0-4.8,0.2-6.9,0.7c-2.1,0.4-3.9,1.2-5.5,2.3c-1.5,1-2.8,2.5-3.8,4.4c-1,1.8-1.6,4-1.9,6.8h-7.3c0.2-3.7,1.1-6.9,2.5-9.4
	c1.4-2.7,3.3-4.8,5.5-6.4c2.3-1.7,5-2.9,7.9-3.6c3-0.8,6.3-1.2,9.6-1.2c3.1,0,6.1,0.4,8.8,1.1c2.8,0.6,5.2,1.7,7.2,3.3
	c2.1,1.5,3.7,3.4,4.8,5.9c1.2,2.5,1.8,5.6,1.8,9.2v34.1c0,2.8,0.5,4.6,1.4,5.4c1,0.7,3.1,0.5,6.1-0.6v5.7c-0.6,0.2-1.4,0.4-2.5,0.7
	c-1,0.3-2.1,0.5-3.1,0.5c-1.1,0-2.2-0.1-3.2-0.4c-1.2-0.2-2.2-0.5-2.9-1.1c-0.7-0.6-1.3-1.4-1.8-2.2c-0.4-0.9-0.7-1.8-0.8-2.8
	c-0.2-1-0.2-2.1-0.2-3.3c-3,3.4-6.5,6-10.5,7.7c-3.9,1.8-8.2,2.7-12.7,2.7c-2.7,0-5.4-0.4-7.9-1.1c-2.5-0.7-4.7-1.9-6.6-3.4
	c-1.9-1.5-3.4-3.4-4.6-5.6c-1.1-2.3-1.7-4.9-1.7-8c0-10.6,7.3-16.9,21.8-18.9L375.1,53.8z"/>
<path class="st0" d="M51.8,151.5h-0.1l-3.4,7.5h6.9L51.8,151.5z M51.8,151.5h-0.1l-3.4,7.5h6.9L51.8,151.5z M51.8,151.5h-0.1
	l-3.4,7.5h6.9L51.8,151.5z"/>
<path class="st0" d="M21,131.2V181h381.2v-49.8H21z M62.6,167.2h-3c-0.5,0-0.8-0.2-1-0.7l-1.7-3.7H46.7l-1.7,3.7
	c-0.1,0.3-0.5,0.7-1,0.7h-3c-0.5,0-0.8-0.4-0.6-0.9l10.6-23c0.1-0.2,0.3-0.4,0.6-0.4H52c0.3,0,0.5,0.2,0.6,0.4l10.5,23
	C63.4,166.8,63.1,167.2,62.6,167.2z M216.2,158.5h-4.3v8c0,0.4-0.3,0.7-0.7,0.7h-3.2c-0.4,0-0.6-0.3-0.6-0.7v-22.7
	c0-0.3,0.3-0.7,0.6-0.7h8.1c4.2,0,7.7,3.4,7.7,7.6C223.8,155,220.4,158.5,216.2,158.5z M381.7,166.5c0,0.4-0.3,0.7-0.7,0.7h-3.2
	c-0.3,0-0.6-0.3-0.6-0.7v-22.7c0-0.3,0.3-0.7,0.6-0.7h3.2c0.3,0,0.7,0.3,0.7,0.7V166.5z"/>
<path class="st0" d="M219.4,150.8c0,2-1.6,3.6-3.5,3.6h-4v-6.9h4C217.8,147.4,219.4,148.9,219.4,150.8z"/>
</svg>
